<svg id="SvgjsSvg1001" width="288" height="288" xmlns="http://www.w3.org/2000/svg" version="1.1" xmlns:xlink="http://www.w3.org/1999/xlink" xmlns:svgjs="http://svgjs.com/svgjs"><defs id="SvgjsDefs1002"></defs><g id="SvgjsG1008"><svg xmlns="http://www.w3.org/2000/svg" viewBox="0 0 44 44" width="288" height="288"><path fill="#d5e3ef" d="M25 31L13 19l9.8-9.8C27.5 4.5 33.5 1.4 40 .3l1.8-.3h.3c1 0 1.8.8 1.8 1.8v.3L43.7 4c-1.1 6.5-4.2 12.5-8.8 17.1L25 31z" class="colord5e3ef svgShape"></path><path fill="#b0c4d9" d="M35.8 13.2L21.5 27.5 25 31l9.8-9.8c4.7-4.7 7.7-10.6 8.8-17.1l.4-1.9v-.3c0-.5-.2-.9-.5-1.2-1.5 4.6-4.1 8.9-7.7 12.5z" class="colorb0c4d9 svgShape"></path><path fill="#f79548" d="M25.5 40.5c-.6-.6-1.6-.6-2.2 0-.8.8-1.3 3.3-1.4 3.4v.1s.1.1.1 0c.1 0 2.5-.5 3.4-1.4.8-.6.8-1.5.1-2.1zM3.5 18.5c-.6-.6-1.6-.6-2.2 0-.8.8-1.3 3.2-1.3 3.3v.1s.1.1.1 0c.1 0 2.5-.5 3.4-1.4.7-.5.7-1.4 0-2zM10.6 33.4c-1.8-1.8-4.8-1.8-6.6 0-2.5 2.5-4 9.8-4.1 10.1 0 .2 0 .3.1.4.2.1.4.1.6.1.3-.1 7.6-1.5 10.1-4.1 1.8-1.8 1.8-4.7-.1-6.5z" class="colorf79548 svgShape"></path><path fill="#fcbb76" d="M10.3 33.5c-.9-.9-2.4-.9-3.3 0-1.3 1.3-2 4.9-2 5 0 .1 0 .2.1.2.1.1.1.1.2.1.2 0 3.8-.8 5-2 .9-.9.9-2.4 0-3.3z" class="colorfcbb76 svgShape"></path><path fill="#99b4cd" d="M26 36l-3-3 6-6v6z" class="color99b4cd svgShape"></path><path fill="#6c9abb" d="M25.7 32.3l1.9-1.9c.9-.9 1.4-2.1 1.4-3.4l-6 6 3 3 1-1-1.3-1.3c-.4-.4-.4-1 0-1.4z" class="color6c9abb svgShape"></path><path fill="#d5e3ef" d="M28 42l-4-4 7.2-7.2c.5-.5 1.2-.8 2-.8 1.6 0 2.8 1.3 2.8 2.8 0 .8-.3 1.5-.8 2L28 42z" class="colord5e3ef svgShape"></path><path fill="#b0c4d9" d="M35.2 32.8L28 40l-3-3-1 1 4 4 7.2-7.2c.5-.5.8-1.2.8-2 0-.4-.1-.7-.2-1-.1.4-.3.7-.6 1z" class="colorb0c4d9 svgShape"></path><path fill="#99b4cd" d="M8 28c.7-.7 1.5-1.2 2.3-1.4L12 26l6 6-.6 1.7c-.3.9-.8 1.7-1.4 2.3l-8-8z" class="color99b4cd svgShape"></path><path fill="#6c9abb" d="M12 26l-1.5.5 3.3 3.3c.8.8 1 1.9.7 2.9-.1.4-.3.8-.6 1.2L16 36c.7-.7 1.2-1.5 1.4-2.3L18 32l-6-6z" class="color6c9abb svgShape"></path><path fill="#99b4cd" d="M8 18l3 3 6-6h-6z" class="color99b4cd svgShape"></path><path fill="#6c9abb" d="M10.7 18.7c-.4-.4-.4-1 0-1.4L13 15h-2l-3 3 3 3c.6-.6.6-1.4 0-2l-.3-.3z" class="color6c9abb svgShape"></path><path fill="#d5e3ef" d="M2 16l4 4 7.2-7.2c.5-.5.8-1.2.8-2C14 9.3 12.7 8 11.2 8c-.8 0-1.5.3-2 .8L2 16z" class="colord5e3ef svgShape"></path><circle cx="28" cy="16" r="4" fill="#70b7e5" class="color70b7e5 svgShape"></circle><path fill="#f04b4d" d="M28 21c-2.8 0-5-2.2-5-5s2.2-5 5-5 5 2.2 5 5-2.2 5-5 5zm0-8c-1.7 0-3 1.3-3 3s1.3 3 3 3 3-1.3 3-3-1.3-3-3-3z" class="colorf04b4d svgShape"></path><path fill="#4c9cd6" d="M26.4 18.6c-.3-.5-.4-1-.4-1.6 0-1.7 1.3-3 3-3 .6 0 1.1.2 1.6.4-.6-.8-1.5-1.4-2.6-1.4-1.7 0-3 1.3-3 3 0 1.1.6 2 1.4 2.6z" class="color4c9cd6 svgShape"></path><path fill="#f04d4e" d="M25 31l-3.3 3.3c-.4.4-1 .4-1.4 0L9.7 23.7c-.4-.4-.4-1 0-1.4L13 19l12 12z" class="colorf04d4e svgShape"></path><path fill="#db343f" d="M17.6 28.6l-6.3-6.3c-.4-.4-1.1-.4-1.6 0-.4.4-.4 1 0 1.4l10.6 10.6c.4.4 1 .4 1.4 0L25 31l-3.5-3.5-1.1 1.1c-.8.8-2 .8-2.8 0z" class="colordb343f svgShape"></path><path fill="#f04d4e" d="M25.4 35.7h4.2v5.7h-4.2z" transform="rotate(-45.001 27.5 38.5)" class="colorf04d4e svgShape"></path><path fill="#db343f" d="M30 38l-1.4 1.4c-.6.6-1.4.6-2 0l-2-2-.6.6 4 4 3-3-1-1z" class="colordb343f svgShape"></path><path fill="#ecf0f9" d="M17 18.5c-.1 0-.3 0-.4-.1-.2-.2-.2-.5 0-.7l5-5c.2-.2.5-.2.7 0s.2.5 0 .7l-5 5c0 .1-.2.1-.3.1zM24 11.5c-.1 0-.3 0-.4-.1-.2-.2-.2-.5 0-.7l2-2c.2-.2.5-.2.7 0s.2.5 0 .7l-2 2c0 .1-.2.1-.3.1z" class="colorecf0f9 svgShape"></path><path fill="#f04d4e" d="M42.2 0h-.3L40 .3c-3.1.5-6 1.5-8.8 2.9L36 8l4.8 4.8c1.4-2.8 2.3-5.7 2.9-8.8l.3-1.8v-.3C44 .8 43.2 0 42.2 0z" class="colorf04d4e svgShape"></path><path fill="#f26a56" d="M35 4.1c-.2 0-.4-.1-.5-.3-.1-.3 0-.5.3-.6 2-.8 4-1.3 6.1-1.7.3 0 .5.1.6.4 0 .3-.1.5-.4.6-2 .3-4 .9-5.9 1.6H35zM28 11.1V11c-2.8 0-5 2.2-5 5h.1c.5 0 .9-.3 1-.8.1-.7.5-1.3.9-1.8.6-.6 1.3-1.1 2.2-1.3.5-.1.8-.5.8-1z" class="colorf26a56 svgShape"></path><path fill="#db343f" d="M28 20.9v.1c2.8 0 5-2.2 5-5h-.1c-.5 0-.9.3-1 .8-.1.7-.5 1.3-.9 1.8-.6.6-1.3 1.1-2.2 1.3-.5.1-.8.5-.8 1z" class="colordb343f svgShape"></path><path fill="#ecf0f9" d="M30 34.5c-.1 0-.3 0-.4-.1-.2-.2-.2-.5 0-.7l2-2c.2-.2.5-.2.7 0s.2.5 0 .7l-2 2c0 .1-.2.1-.3.1z" class="colorecf0f9 svgShape"></path><path fill="#b0c4d9" d="M13.2 10.8L6 18l-3-3-1 1 4 4 7.2-7.2c.5-.5.8-1.2.8-2 0-.4-.1-.7-.2-1-.1.4-.3.7-.6 1z" class="colorb0c4d9 svgShape"></path><path fill="#ecf0f9" d="M8 12.5c-.1 0-.3 0-.4-.1-.2-.2-.2-.5 0-.7l2-2c.2-.2.5-.2.7 0s.2.5 0 .7l-2 2c0 .1-.2.1-.3.1z" class="colorecf0f9 svgShape"></path><path fill="#f04d4e" d="M3.4 13.7h4.2v5.7H3.4z" transform="rotate(-45.001 5.5 16.5)" class="colorf04d4e svgShape"></path><path fill="#db343f" d="M8 16l-1.4 1.4c-.6.6-1.4.6-2 0l-2-2-.6.6 4 4 3-3-1-1zM38.3 10.3l2.5 2.5c1.4-2.8 2.3-5.7 2.9-8.8l.3-1.8v-.3c0-.5-.2-.9-.5-1.2-1.1 3.4-2.9 6.7-5.2 9.6z" class="colordb343f svgShape"></path></svg></g></svg>